<svg id="Layer_1" height="512" viewBox="0 0 512 512" width="512" xmlns="http://www.w3.org/2000/svg" xmlns:xlink="http://www.w3.org/1999/xlink" data-name="Layer 1"><linearGradient id="GradientFill_1" gradientUnits="userSpaceOnUse" x1="255.978" x2="255.979" y1="510.713" y2="1.286"><stop offset="0" stop-color="#6c54a3"/><stop offset="1" stop-color="#00b1d2"/></linearGradient><path d="m185.678 48.721a11.073 11.073 0 1 1 -11.07 11.073 11.108 11.108 0 0 1 11.07-11.073zm0 38.148a27.075 27.075 0 1 0 -27.071-27.075 27.1 27.1 0 0 0 27.071 27.075zm-42.517-29.218v4.215l6.658 1.714a8.116 8.116 0 0 1 5.677 5.429 31.7 31.7 0 0 0 2.291 5.573 7.92 7.92 0 0 1 -.19 7.787l-3.53 5.929 3.019 3.072 5.913-3.5a7.659 7.659 0 0 1 4.086-1.143 7.839 7.839 0 0 1 3.772.929 31.519 31.519 0 0 0 5.537 2.286 8.094 8.094 0 0 1 5.391 5.715l1.705 6.644h4.273l1.685-6.573a8.138 8.138 0 0 1 5.439-5.714 31.648 31.648 0 0 0 5.592-2.287 8.033 8.033 0 0 1 7.825.215l5.893 3.5 3.02-3.072-3.458-5.786a7.967 7.967 0 0 1 -.167-7.858 31.506 31.506 0 0 0 2.353-5.644 8.129 8.129 0 0 1 5.67-5.429l6.583-1.644v-4.287l-6.522-1.643a8.1 8.1 0 0 1 -5.676-5.429 30.287 30.287 0 0 0 -2.338-5.715 8.026 8.026 0 0 1 .181-7.858l3.452-5.787-3.02-3-5.793 3.428a7.909 7.909 0 0 1 -7.858.144 39.571 39.571 0 0 0 -5.664-2.362 7.9 7.9 0 0 1 -5.42-5.644l-1.674-6.572h-4.266l-1.675 6.572a7.9 7.9 0 0 1 -5.425 5.644 39.258 39.258 0 0 0 -5.617 2.358 8.075 8.075 0 0 1 -7.848-.215l-5.873-3.429-3.02 3 3.491 5.859a8.031 8.031 0 0 1 .182 7.858 31.314 31.314 0 0 0 -2.311 5.572 8.121 8.121 0 0 1 -5.673 5.429l-6.67 1.715zm-9.976 18.217 8.405 2.143-4.454 7.5a7.96 7.96 0 0 0 1.222 9.715l11.811 11.859a8.032 8.032 0 0 0 9.741 1.215l7.459-4.43 2.155 8.43a7.95 7.95 0 0 0 7.752 6h16.7a7.947 7.947 0 0 0 7.752-6l2.143-8.43 7.5 4.5a8.037 8.037 0 0 0 9.743-1.214l11.811-11.856a7.959 7.959 0 0 0 1.222-9.716l-4.426-7.43 8.453-2.214a7.928 7.928 0 0 0 6.022-7.715v-16.718a8.073 8.073 0 0 0 -6.022-7.787l-8.405-2.143 4.454-7.5a7.963 7.963 0 0 0 -1.223-9.716l-11.812-11.788a8.029 8.029 0 0 0 -9.739-1.214l-7.46 4.429-2.153-8.5a8.031 8.031 0 0 0 -7.753-6h-16.7a8.029 8.029 0 0 0 -7.752 6l-2.143 8.429-7.5-4.429a8.029 8.029 0 0 0 -9.739 1.215l-11.818 11.786a7.964 7.964 0 0 0 -1.222 9.716l4.428 7.5-8.452 2.143a8.012 8.012 0 0 0 -6.024 7.787v16.646a8.012 8.012 0 0 0 6.024 7.787zm5.464 105.085a18.717 18.717 0 1 1 -18.736 18.717 18.724 18.724 0 0 1 18.736-18.717zm0 53.436a34.719 34.719 0 1 0 -34.734-34.719 34.766 34.766 0 0 0 34.734 34.719zm-62.821-40.289v11l11.759 3a7.853 7.853 0 0 1 5.673 5.429 47.057 47.057 0 0 0 3.447 8.287 8.041 8.041 0 0 1 -.19 7.858l-6.223 10.5 7.766 7.715 10.439-6.144a7.653 7.653 0 0 1 4.083-1.143 7.849 7.849 0 0 1 3.774.929 45.2 45.2 0 0 0 8.329 3.5 7.878 7.878 0 0 1 5.394 5.643l3 11.787h10.984l2.983-11.644a8 8 0 0 1 5.437-5.715 45.154 45.154 0 0 0 8.416-3.429 7.841 7.841 0 0 1 7.822.143l10.411 6.215 7.764-7.787-6.123-10.287a7.977 7.977 0 0 1 -.167-7.858 47.505 47.505 0 0 0 3.541-8.5 8.131 8.131 0 0 1 5.67-5.43l11.648-2.929v-11l-11.562-2.929a8.1 8.1 0 0 1 -5.681-5.429 45.94 45.94 0 0 0 -3.521-8.573 8.037 8.037 0 0 1 .183-7.858l6.117-10.287-7.766-7.716-10.272 6.073a7.911 7.911 0 0 1 -7.858.142 46.488 46.488 0 0 0 -8.511-3.5 8.118 8.118 0 0 1 -5.419-5.715l-2.966-11.573h-10.976l-2.967 11.573a8.118 8.118 0 0 1 -5.419 5.715 46.1 46.1 0 0 0 -8.453 3.5 8.079 8.079 0 0 1 -7.85-.214l-10.38-6.144-7.764 7.788 6.169 10.359a8.031 8.031 0 0 1 .182 7.858 49.394 49.394 0 0 0 -3.475 8.358 7.991 7.991 0 0 1 -5.676 5.432l-11.773 3zm-9.977 24.93 13.613 3.5c.346.857.714 1.785 1.1 2.643l-7.2 12.144a8.073 8.073 0 0 0 1.222 9.787l16.557 16.5a7.928 7.928 0 0 0 9.738 1.215l12.075-7.144c.885.429 1.778.786 2.676 1.143l3.486 13.645a7.945 7.945 0 0 0 7.752 6h23.416a7.951 7.951 0 0 0 7.752-6l3.448-13.574q1.4-.535 2.763-1.071l12.064 7.144a8.034 8.034 0 0 0 9.742-1.215l16.557-16.573a7.967 7.967 0 0 0 1.222-9.716l-7.088-12q.627-1.392 1.188-2.786l13.512-3.5a7.931 7.931 0 0 0 6.025-7.715v-23.431a7.935 7.935 0 0 0 -6.025-7.716l-13.4-3.429c-.377-1-.779-2-1.2-2.929l7.094-11.93a8.077 8.077 0 0 0 -1.223-9.787l-16.556-16.5a7.947 7.947 0 0 0 -9.741-1.286l-11.9 7.072c-.958-.428-1.923-.785-2.9-1.142l-3.435-13.5a7.951 7.951 0 0 0 -7.752-6h-23.418a7.95 7.95 0 0 0 -7.752 6l-3.436 13.5c-.948.357-1.888.714-2.821 1.142l-12.018-7.143a8.032 8.032 0 0 0 -9.742 1.214l-16.557 16.572a7.959 7.959 0 0 0 -1.222 9.715l7.144 12.073c-.4.858-.776 1.786-1.131 2.715l-13.629 3.5a7.928 7.928 0 0 0 -6.021 7.715v23.432a7.928 7.928 0 0 0 6.021 7.715zm278.886-100.514a32.469 32.469 0 1 1 -32.465 32.433 32.5 32.5 0 0 1 32.465-32.433zm0 80.94a48.471 48.471 0 1 0 -48.466-48.507 48.56 48.56 0 0 0 48.466 48.507zm-67.225-92.084a8.023 8.023 0 0 1 .179 7.858 74.839 74.839 0 0 0 -5.562 13.359 7.983 7.983 0 0 1 -5.672 5.429l-20.91 5.358v23l20.89 5.287a8.113 8.113 0 0 1 5.673 5.429 78.134 78.134 0 0 0 5.514 13.359 7.913 7.913 0 0 1 -.187 7.787l-11.051 18.645 16.27 16.288 18.543-11a7.656 7.656 0 0 1 4.085-1.143 7.84 7.84 0 0 1 3.773.929 76.274 76.274 0 0 0 13.334 5.572 8.132 8.132 0 0 1 5.391 5.643l5.341 21h23l5.305-20.788a7.881 7.881 0 0 1 5.436-5.716 76.551 76.551 0 0 0 13.467-5.572 8.03 8.03 0 0 1 7.825.215l18.5 11 16.266-16.288-10.9-18.359a7.98 7.98 0 0 1 -.167-7.859 75.106 75.106 0 0 0 5.668-13.573 7.9 7.9 0 0 1 5.67-5.358l20.723-5.286v-23l-20.583-5.288a7.968 7.968 0 0 1 -5.682-5.429 75.716 75.716 0 0 0 -5.633-13.645 8.025 8.025 0 0 1 .181-7.858l10.886-18.36-16.269-16.208-18.286 10.854a7.914 7.914 0 0 1 -7.861.143 73.575 73.575 0 0 0 -13.625-5.644 8.115 8.115 0 0 1 -5.418-5.714l-5.274-20.646h-23.008l-5.275 20.646a8.121 8.121 0 0 1 -5.422 5.714 77.8 77.8 0 0 0 -13.528 5.573 7.892 7.892 0 0 1 -7.848-.143l-18.459-11-16.269 16.286 10.969 18.5zm-15.989 4.428-11.91-20.074a8.076 8.076 0 0 1 1.222-9.787l25.059-25a7.942 7.942 0 0 1 9.739-1.285l20.045 11.93a82.106 82.106 0 0 1 7.964-3.286l5.735-22.5a7.944 7.944 0 0 1 7.749-6h35.44a7.948 7.948 0 0 1 7.752 6l5.732 22.5a84.565 84.565 0 0 1 8.076 3.357l19.874-11.79a7.934 7.934 0 0 1 9.742 1.214l25.056 25a8.08 8.08 0 0 1 1.225 9.787l-11.837 19.934c1.245 2.643 2.361 5.358 3.346 8.073l22.369 5.715a8.012 8.012 0 0 1 6.025 7.787v35.433a7.931 7.931 0 0 1 -6.025 7.715l-22.525 5.787c-.989 2.714-2.1 5.358-3.346 8l11.832 19.931a7.966 7.966 0 0 1 -1.223 9.716l-25.059 25.077a8.035 8.035 0 0 1 -9.742 1.214l-20.1-11.93a80.2 80.2 0 0 1 -7.886 3.215l-5.752 22.574a8.015 8.015 0 0 1 -7.753 6.072h-35.441a8.015 8.015 0 0 1 -7.753-6.072l-5.8-22.717c-2.623-1-5.212-2.072-7.748-3.286l-20.126 12a8.031 8.031 0 0 1 -9.739-1.214l-25.059-25.075a8.063 8.063 0 0 1 -1.222-9.787l12-20.146c-1.183-2.572-2.252-5.143-3.2-7.787l-22.689-5.785a7.927 7.927 0 0 1 -6.021-7.715v-35.434a8.01 8.01 0 0 1 6.021-7.787l22.708-5.786c.959-2.644 2.042-5.287 3.245-7.787zm229.884 166.167-138.3 137.447a26.7 26.7 0 0 1 -23.3 7.787l-140.281-19.501a7.776 7.776 0 0 0 -5.955 1.572l-34.723 26.428-51.742-77.866 66.234-46.434c15.25-10.716 32.192-14 50.347-9.858l136 30.932a13.972 13.972 0 0 1 8.983 6.359 14.342 14.342 0 0 1 1.869 10.858l-.159.715a14.473 14.473 0 0 1 -17.036 10.858l-96.877-20.5a7.95 7.95 0 0 0 -9.485 6.144 8.04 8.04 0 0 0 6.167 9.5l96.877 20.5a30.5 30.5 0 0 0 35.956-23l.159-.643a30.277 30.277 0 0 0 -3.558-22.36l97.626-73.3a15.322 15.322 0 0 1 20.579 1.857l1.067 1.144a15.3 15.3 0 0 1 -.446 21.36zm-401.649 213.671 55.284-36.719-70.713-106.514-55.283 36.719zm412.769-247.1 1.065 1.144a31.325 31.325 0 0 1 -.906 43.648l-138.3 137.447a42.687 42.687 0 0 1 -36.786 12.283l-136.98-19.074-32.9 25.075 5.078 7.644a8.016 8.016 0 0 1 1.178 6 7.924 7.924 0 0 1 -3.416 5.072l-68.611 45.578a7.8 7.8 0 0 1 -4.42 1.357 8.073 8.073 0 0 1 -6.673-3.571l-79.564-119.802a8.048 8.048 0 0 1 -1.337-4.439 7.987 7.987 0 0 1 3.575-6.632l68.612-45.578a8.114 8.114 0 0 1 6.008-1.215 8.257 8.257 0 0 1 5.081 3.43l5.021 7.572 65.9-46.149a77.425 77.425 0 0 1 63.08-12.43l136 30.932a31.209 31.209 0 0 1 7.646 2.858l99.722-74.869a31.326 31.326 0 0 1 41.927 3.714z" fill="url(#GradientFill_1)" fill-rule="evenodd"/></svg>