<svg id="_x33_0" enable-background="new 0 0 496 488" height="512" viewBox="0 0 496 488" width="512" xmlns="http://www.w3.org/2000/svg" xmlns:xlink="http://www.w3.org/1999/xlink"><linearGradient id="SVGID_1_" gradientUnits="userSpaceOnUse" x1="248" x2="248" y1="488" y2="0"><stop offset="0" stop-color="#9f2fff"/><stop offset="1" stop-color="#0bb1d3"/></linearGradient><path d="m472 0h-160c-13.233 0-24 10.767-24 24v119.5c-20.319-10.136-42.863-15.5-66.233-15.5-33.593 0-65.485 10.745-92.229 31.072-26.744 20.328-45.633 48.182-54.624 80.55l-9.532 34.316-8.064 3.024c-34.285 12.856-57.318 46.094-57.318 82.707 0 48.706 39.625 88.331 88.331 88.331h165.949c15.722 24.064 42.893 40 73.72 40 27.515 0 54.789-9.092 76.8-25.6l-9.6-12.801c-19.26 14.446-43.125 22.401-67.2 22.401-39.701 0-72-32.299-72-72 0-39.695 32.295-71.992 72.001-71.995h.005c19.229 0 37.308 7.488 50.905 21.085 13.6 13.598 21.089 31.679 21.089 50.91v11.155c0 7.083-5.762 12.845-12.845 12.845-4.304 0-8.3-2.139-10.688-5.72l-16.467-24.703-13.374 20.063c-4.325 6.487-11.563 10.36-19.359 10.36-12.829 0-23.267-10.437-23.267-23.267v-2.622c0-12.192 9.919-22.111 22.111-22.111 7.984 0 15.162 4.437 18.733 11.578l14.311-7.156c-6.299-12.597-18.961-20.422-33.044-20.422-21.014 0-38.111 17.097-38.111 38.111v2.622c0 21.652 17.615 39.267 39.267 39.267 13.159 0 25.373-6.536 32.672-17.485l.062-.092 3.155 4.732c5.362 8.043 14.334 12.845 24 12.845 15.905 0 28.844-12.939 28.844-28.845v-11.155c0-23.505-9.153-45.604-25.775-62.224-1.997-1.997-4.077-3.879-6.225-5.657v-92.119c0-8.822-7.178-16-16-16h-240c-8.822 0-16 7.178-16 16v144c0 8.822 7.178 16 16 16h112c0 11.284 2.137 22.077 6.024 32h-157.693c-39.884 0-72.331-32.447-72.331-72.331 0-29.981 18.861-57.197 46.934-67.726l15.686-5.882 11.71-42.157c16.339-58.822 70.388-99.904 131.437-99.904 35.415 0 68.711 13.791 93.753 38.834l9.167 9.166h3.313c57.346 0 104 46.654 104 104v4.944l12.621 6.311c21.822 10.911 35.379 32.846 35.379 57.243v3.502c0 35.29-28.71 64-64 64v16c44.112 0 80-35.888 80-80v-3.502-340.498c0-13.233-10.767-24-24-24zm-144.005 312.005c-.002 0-.005 0-.007 0-13.2.001-25.727 2.929-36.975 8.161l-10.207-8.166 87.194-69.755v79.353c-12.236-6.258-25.859-9.593-40.005-9.593zm-112.802-.005-87.193 69.755v-139.51zm-64.387-72h194.388l-97.194 77.755zm.001 144 77.193-61.755 20 16 20-16 8.269 6.615c-17.856 13.019-30.646 32.585-34.807 55.14zm329.193-272h-176v-16h176zm-168-96h160c4.411 0 8 3.589 8 8v56h-176v-56c0-4.411 3.589-8 8-8zm14.834 155.52c-7.062-7.062-14.71-13.323-22.834-18.743v-24.777h176v64h-92.184c-16.71-9.648-35.947-15.388-56.456-15.954zm82.662 36.48h70.504v16h-56.063c-4.331-5.756-9.166-11.111-14.441-16zm42.281 84.944-3.88-1.939c-.755-18.358-5.659-35.662-13.789-51.005h45.892v76.394c-7.299-9.69-16.86-17.768-28.223-23.45z" fill="url(#SVGID_1_)"/></svg>