<svg xmlns="http://www.w3.org/2000/svg" xmlns:xlink="http://www.w3.org/1999/xlink" width="500" zoomAndPan="magnify" viewBox="0 0 375 374.999991" height="500" preserveAspectRatio="xMidYMid meet" version="1.2"><defs><clipPath id="9faa8442f7"><path d="M 184.652344 78.214844 L 190.652344 78.214844 L 190.652344 265.714844 L 184.652344 265.714844 Z M 184.652344 78.214844 "/></clipPath><clipPath id="8d0abc3df9"><path d="M 212 115 L 246 115 L 246 157 L 212 157 Z M 212 115 "/></clipPath><clipPath id="170bbd58d7"><path d="M 195.722656 131.367188 L 224.128906 105.753906 L 256.273438 141.402344 L 227.863281 167.015625 Z M 195.722656 131.367188 "/></clipPath><clipPath id="44b5d32c8d"><path d="M 195.722656 131.367188 L 224.128906 105.753906 L 256.273438 141.402344 L 227.863281 167.015625 Z M 195.722656 131.367188 "/></clipPath><clipPath id="54bed052b3"><path d="M 214 121 L 243 121 L 243 152 L 214 152 Z M 214 121 "/></clipPath><clipPath id="10121c37f9"><path d="M 195.722656 131.367188 L 224.128906 105.753906 L 256.273438 141.402344 L 227.863281 167.015625 Z M 195.722656 131.367188 "/></clipPath><clipPath id="51d267c470"><path d="M 195.722656 131.367188 L 224.128906 105.753906 L 256.273438 141.402344 L 227.863281 167.015625 Z M 195.722656 131.367188 "/></clipPath></defs><g id="7587ff191c"><g clip-rule="nonzero" clip-path="url(#9faa8442f7)"><path style=" stroke:none;fill-rule:nonzero;fill:#373b3e;fill-opacity:1;" d="M 184.652344 78.214844 L 190.652344 78.214844 L 190.652344 265.714844 L 184.652344 265.714844 Z M 184.652344 78.214844 "/></g><g style="fill:#bec8d1;fill-opacity:1;"><g transform="translate(124.556086, 293.0679)"><path style="stroke:none" d="M 10.078125 0.34375 C 8.515625 0.34375 7.160156 0.0820312 6.015625 -0.4375 C 4.878906 -0.96875 3.9375 -1.679688 3.1875 -2.578125 C 2.4375 -3.484375 1.878906 -4.523438 1.515625 -5.703125 C 1.148438 -6.878906 0.96875 -8.113281 0.96875 -9.40625 C 0.96875 -10.707031 1.148438 -11.945312 1.515625 -13.125 C 1.878906 -14.300781 2.4375 -15.335938 3.1875 -16.234375 C 3.9375 -17.140625 4.878906 -17.847656 6.015625 -18.359375 C 7.160156 -18.878906 8.515625 -19.140625 10.078125 -19.140625 C 11.617188 -19.140625 12.957031 -18.875 14.09375 -18.34375 C 15.226562 -17.820312 16.128906 -17.09375 16.796875 -16.15625 C 17.472656 -15.226562 17.894531 -14.144531 18.0625 -12.90625 L 14.1875 -12.90625 C 14.03125 -13.914062 13.566406 -14.675781 12.796875 -15.1875 C 12.035156 -15.707031 11.097656 -15.96875 9.984375 -15.96875 C 8.828125 -15.96875 7.851562 -15.691406 7.0625 -15.140625 C 6.28125 -14.585938 5.679688 -13.816406 5.265625 -12.828125 C 4.859375 -11.847656 4.65625 -10.707031 4.65625 -9.40625 C 4.65625 -8.113281 4.859375 -6.96875 5.265625 -5.96875 C 5.679688 -4.976562 6.28125 -4.207031 7.0625 -3.65625 C 7.851562 -3.101562 8.828125 -2.828125 9.984375 -2.828125 C 11.097656 -2.828125 12.03125 -3.097656 12.78125 -3.640625 C 13.539062 -4.179688 14.007812 -5.003906 14.1875 -6.109375 L 18.0625 -6.109375 C 17.894531 -4.816406 17.472656 -3.679688 16.796875 -2.703125 C 16.128906 -1.734375 15.226562 -0.984375 14.09375 -0.453125 C 12.957031 0.078125 11.617188 0.34375 10.078125 0.34375 Z M 10.078125 0.34375 "/></g></g><g style="fill:#bec8d1;fill-opacity:1;"><g transform="translate(143.449502, 293.0679)"><path style="stroke:none" d="M 4.859375 0 L 1.53125 0 L 1.53125 -18.796875 L 4.859375 -18.796875 L 4.859375 -12.078125 C 5.410156 -12.847656 5.984375 -13.378906 6.578125 -13.671875 C 7.179688 -13.972656 7.851562 -14.125 8.59375 -14.125 C 9.863281 -14.125 10.828125 -13.894531 11.484375 -13.4375 C 12.140625 -12.988281 12.613281 -12.441406 12.90625 -11.796875 C 13.207031 -11.191406 13.378906 -10.570312 13.421875 -9.9375 C 13.472656 -9.3125 13.5 -8.648438 13.5 -7.953125 L 13.5 0 L 10.171875 0 L 10.171875 -8.015625 C 10.171875 -9.359375 9.953125 -10.273438 9.515625 -10.765625 C 9.117188 -11.179688 8.535156 -11.390625 7.765625 -11.390625 C 6.804688 -11.390625 6.097656 -11.109375 5.640625 -10.546875 C 5.359375 -10.210938 5.15625 -9.773438 5.03125 -9.234375 C 4.914062 -8.691406 4.859375 -7.960938 4.859375 -7.046875 Z M 4.859375 0 "/></g></g><g style="fill:#bec8d1;fill-opacity:1;"><g transform="translate(158.352386, 293.0679)"><path style="stroke:none" d="M 5.5 0.265625 C 4.195312 0.265625 3.113281 -0.0820312 2.25 -0.78125 C 1.394531 -1.476562 0.96875 -2.484375 0.96875 -3.796875 C 0.96875 -4.535156 1.109375 -5.160156 1.390625 -5.671875 C 1.679688 -6.191406 2.0625 -6.617188 2.53125 -6.953125 C 2.976562 -7.265625 3.484375 -7.507812 4.046875 -7.6875 C 4.617188 -7.863281 5.191406 -8.007812 5.765625 -8.125 L 9.875 -8.890625 C 9.84375 -9.742188 9.625 -10.394531 9.21875 -10.84375 C 8.800781 -11.28125 8.1875 -11.5 7.375 -11.5 C 6.75 -11.5 6.191406 -11.3125 5.703125 -10.9375 C 5.222656 -10.570312 4.914062 -10.0625 4.78125 -9.40625 L 1.484375 -9.40625 C 1.640625 -10.488281 2.015625 -11.375 2.609375 -12.0625 C 3.203125 -12.757812 3.921875 -13.273438 4.765625 -13.609375 C 5.609375 -13.953125 6.484375 -14.125 7.390625 -14.125 C 8.191406 -14.125 8.960938 -14.003906 9.703125 -13.765625 C 10.441406 -13.535156 11.066406 -13.1875 11.578125 -12.71875 C 12.117188 -12.238281 12.503906 -11.691406 12.734375 -11.078125 C 12.960938 -10.460938 13.097656 -9.820312 13.140625 -9.15625 C 13.179688 -8.488281 13.203125 -7.832031 13.203125 -7.1875 L 13.203125 0 L 9.875 0 L 9.875 -1.875 C 9.53125 -1.269531 9.113281 -0.8125 8.625 -0.5 C 8.195312 -0.21875 7.710938 -0.0195312 7.171875 0.09375 C 6.640625 0.207031 6.082031 0.265625 5.5 0.265625 Z M 6.3125 -2.34375 C 6.96875 -2.34375 7.554688 -2.472656 8.078125 -2.734375 C 8.804688 -3.097656 9.296875 -3.582031 9.546875 -4.1875 C 9.804688 -4.789062 9.941406 -5.546875 9.953125 -6.453125 L 6.65625 -5.796875 C 6.175781 -5.710938 5.785156 -5.601562 5.484375 -5.46875 C 5.179688 -5.332031 4.929688 -5.175781 4.734375 -5 C 4.597656 -4.875 4.488281 -4.71875 4.40625 -4.53125 C 4.320312 -4.351562 4.28125 -4.148438 4.28125 -3.921875 C 4.28125 -3.410156 4.472656 -3.019531 4.859375 -2.75 C 5.253906 -2.476562 5.738281 -2.34375 6.3125 -2.34375 Z M 6.3125 -2.34375 "/></g></g><g style="fill:#bec8d1;fill-opacity:1;"><g transform="translate(172.910415, 293.0679)"><path style="stroke:none" d="M 4.828125 0 L 1.5 0 L 1.5 -13.828125 L 4.828125 -13.828125 L 4.828125 -12.078125 C 5.367188 -12.828125 5.957031 -13.351562 6.59375 -13.65625 C 7.226562 -13.96875 7.894531 -14.125 8.59375 -14.125 C 9.5 -14.125 10.273438 -13.9375 10.921875 -13.5625 C 11.578125 -13.195312 12.007812 -12.644531 12.21875 -11.90625 C 12.675781 -12.675781 13.242188 -13.238281 13.921875 -13.59375 C 14.597656 -13.945312 15.382812 -14.125 16.28125 -14.125 C 17.84375 -14.125 18.988281 -13.664062 19.71875 -12.75 C 20.457031 -11.84375 20.828125 -10.613281 20.828125 -9.0625 L 20.828125 0 L 17.5 0 L 17.5 -8.65625 C 17.5 -9.601562 17.3125 -10.296875 16.9375 -10.734375 C 16.570312 -11.171875 16.035156 -11.390625 15.328125 -11.390625 C 14.960938 -11.390625 14.640625 -11.328125 14.359375 -11.203125 C 14.085938 -11.078125 13.859375 -10.914062 13.671875 -10.71875 C 13.359375 -10.351562 13.140625 -9.894531 13.015625 -9.34375 C 12.898438 -8.800781 12.84375 -8.125 12.84375 -7.3125 L 12.84375 0 L 9.515625 0 L 9.515625 -8.65625 C 9.515625 -9.582031 9.320312 -10.269531 8.9375 -10.71875 C 8.550781 -11.164062 8.007812 -11.390625 7.3125 -11.390625 C 6.625 -11.390625 6.066406 -11.148438 5.640625 -10.671875 C 5.378906 -10.359375 5.175781 -9.941406 5.03125 -9.421875 C 4.894531 -8.910156 4.828125 -8.207031 4.828125 -7.3125 Z M 4.828125 0 "/></g></g><g style="fill:#bec8d1;fill-opacity:1;"><g transform="translate(195.153894, 293.0679)"><path style="stroke:none" d="M 5.5 0.265625 C 4.195312 0.265625 3.113281 -0.0820312 2.25 -0.78125 C 1.394531 -1.476562 0.96875 -2.484375 0.96875 -3.796875 C 0.96875 -4.535156 1.109375 -5.160156 1.390625 -5.671875 C 1.679688 -6.191406 2.0625 -6.617188 2.53125 -6.953125 C 2.976562 -7.265625 3.484375 -7.507812 4.046875 -7.6875 C 4.617188 -7.863281 5.191406 -8.007812 5.765625 -8.125 L 9.875 -8.890625 C 9.84375 -9.742188 9.625 -10.394531 9.21875 -10.84375 C 8.800781 -11.28125 8.1875 -11.5 7.375 -11.5 C 6.75 -11.5 6.191406 -11.3125 5.703125 -10.9375 C 5.222656 -10.570312 4.914062 -10.0625 4.78125 -9.40625 L 1.484375 -9.40625 C 1.640625 -10.488281 2.015625 -11.375 2.609375 -12.0625 C 3.203125 -12.757812 3.921875 -13.273438 4.765625 -13.609375 C 5.609375 -13.953125 6.484375 -14.125 7.390625 -14.125 C 8.191406 -14.125 8.960938 -14.003906 9.703125 -13.765625 C 10.441406 -13.535156 11.066406 -13.1875 11.578125 -12.71875 C 12.117188 -12.238281 12.503906 -11.691406 12.734375 -11.078125 C 12.960938 -10.460938 13.097656 -9.820312 13.140625 -9.15625 C 13.179688 -8.488281 13.203125 -7.832031 13.203125 -7.1875 L 13.203125 0 L 9.875 0 L 9.875 -1.875 C 9.53125 -1.269531 9.113281 -0.8125 8.625 -0.5 C 8.195312 -0.21875 7.710938 -0.0195312 7.171875 0.09375 C 6.640625 0.207031 6.082031 0.265625 5.5 0.265625 Z M 6.3125 -2.34375 C 6.96875 -2.34375 7.554688 -2.472656 8.078125 -2.734375 C 8.804688 -3.097656 9.296875 -3.582031 9.546875 -4.1875 C 9.804688 -4.789062 9.941406 -5.546875 9.953125 -6.453125 L 6.65625 -5.796875 C 6.175781 -5.710938 5.785156 -5.601562 5.484375 -5.46875 C 5.179688 -5.332031 4.929688 -5.175781 4.734375 -5 C 4.597656 -4.875 4.488281 -4.71875 4.40625 -4.53125 C 4.320312 -4.351562 4.28125 -4.148438 4.28125 -3.921875 C 4.28125 -3.410156 4.472656 -3.019531 4.859375 -2.75 C 5.253906 -2.476562 5.738281 -2.34375 6.3125 -2.34375 Z M 6.3125 -2.34375 "/></g></g><g style="fill:#bec8d1;fill-opacity:1;"><g transform="translate(209.711922, 293.0679)"><path style="stroke:none" d=""/></g></g><g style="fill:#bec8d1;fill-opacity:1;"><g transform="translate(216.313526, 293.0679)"><path style="stroke:none" d="M 9.53125 0 L 5.984375 0 L 5.984375 -15.625 L 0.25 -15.625 L 0.25 -18.796875 L 15.25 -18.796875 L 15.25 -15.625 L 9.53125 -15.625 Z M 9.53125 0 "/></g></g><g style="fill:#bec8d1;fill-opacity:1;"><g transform="translate(231.832229, 293.0679)"><path style="stroke:none" d="M 3.0625 0.265625 C 2.5 0.265625 2.019531 0.0703125 1.625 -0.3125 C 1.226562 -0.695312 1.03125 -1.164062 1.03125 -1.71875 C 1.03125 -2.25 1.234375 -2.707031 1.640625 -3.09375 C 2.046875 -3.476562 2.519531 -3.671875 3.0625 -3.671875 C 3.582031 -3.671875 4.03125 -3.476562 4.40625 -3.09375 C 4.789062 -2.707031 4.984375 -2.25 4.984375 -1.71875 C 4.984375 -1.164062 4.789062 -0.695312 4.40625 -0.3125 C 4.03125 0.0703125 3.582031 0.265625 3.0625 0.265625 Z M 3.0625 0.265625 "/></g></g><g style="fill:#bec8d1;fill-opacity:1;"><g transform="translate(237.842654, 293.0679)"><path style="stroke:none" d="M 5.21875 0 L 1.671875 0 L 1.671875 -18.796875 L 5.21875 -18.796875 Z M 5.21875 0 "/></g></g><g style="fill:#0a4f62;fill-opacity:0.4;"><g transform="translate(215.052792, 264.520259)"><path style="stroke:none" d="M 86.078125 -3.375 C 85.285156 -3.257812 83.203125 -3.203125 79.828125 -3.203125 C 76.453125 -3.203125 72.375 -3.203125 67.59375 -3.203125 C 62.8125 -3.203125 57.773438 -3.203125 52.484375 -3.203125 C 47.203125 -3.203125 42.171875 -3.203125 37.390625 -3.203125 C 32.609375 -3.203125 28.613281 -3.203125 25.40625 -3.203125 C 22.195312 -3.203125 20.3125 -3.257812 19.75 -3.375 C 18.0625 -3.601562 16.9375 -3.96875 16.375 -4.46875 C 15.8125 -4.976562 15.359375 -5.679688 15.015625 -6.578125 C 14.910156 -7.023438 14.828125 -8.117188 14.765625 -9.859375 C 14.710938 -11.609375 14.6875 -14.59375 14.6875 -18.8125 C 14.6875 -23.03125 14.65625 -28.878906 14.59375 -36.359375 C 14.539062 -43.847656 14.515625 -53.5 14.515625 -65.3125 C 14.398438 -84.894531 14.34375 -99.492188 14.34375 -109.109375 C 14.34375 -118.734375 14.398438 -123.992188 14.515625 -124.890625 C 14.847656 -126.921875 15.914062 -128.382812 17.71875 -129.28125 L 18.734375 -129.796875 L 50.296875 -129.96875 C 56.367188 -129.96875 61.910156 -129.96875 66.921875 -129.96875 C 71.929688 -129.96875 76.007812 -129.96875 79.15625 -129.96875 C 82.3125 -129.96875 84.113281 -129.910156 84.5625 -129.796875 C 85.6875 -129.679688 86.441406 -129.59375 86.828125 -129.53125 C 87.222656 -129.476562 87.59375 -129.34375 87.9375 -129.125 C 89.0625 -128.5625 89.847656 -127.546875 90.296875 -126.078125 C 90.523438 -125.515625 90.664062 -124.867188 90.71875 -124.140625 C 90.769531 -123.410156 90.742188 -121.300781 90.640625 -117.8125 L 90.640625 -111.0625 L 90.125 -110.046875 C 89.675781 -109.035156 89.140625 -108.332031 88.515625 -107.9375 C 87.898438 -107.539062 86.804688 -107.226562 85.234375 -107 C 84.785156 -106.894531 82.394531 -106.8125 78.0625 -106.75 C 73.726562 -106.695312 68.1875 -106.671875 61.4375 -106.671875 C 54.238281 -106.671875 49.035156 -106.671875 45.828125 -106.671875 C 42.617188 -106.671875 40.476562 -106.414062 39.40625 -105.90625 C 38.34375 -105.40625 37.472656 -104.476562 36.796875 -103.125 C 36.453125 -102.332031 36.195312 -101.539062 36.03125 -100.75 C 35.863281 -99.96875 35.78125 -98.507812 35.78125 -96.375 C 35.78125 -94.238281 35.78125 -90.921875 35.78125 -86.421875 C 35.78125 -81.921875 35.78125 -75.617188 35.78125 -67.515625 C 35.78125 -61.429688 35.78125 -55.882812 35.78125 -50.875 C 35.78125 -45.875 35.78125 -41.769531 35.78125 -38.5625 C 35.78125 -35.351562 35.78125 -33.46875 35.78125 -32.90625 C 35.894531 -31.675781 36.234375 -30.5 36.796875 -29.375 C 37.359375 -28.25 38.144531 -27.347656 39.15625 -26.671875 C 39.832031 -26.222656 40.648438 -25.941406 41.609375 -25.828125 C 42.566406 -25.710938 44.535156 -25.679688 47.515625 -25.734375 C 50.492188 -25.796875 55.359375 -25.828125 62.109375 -25.828125 C 69.085938 -25.828125 74.347656 -25.796875 77.890625 -25.734375 C 81.429688 -25.679688 83.90625 -25.597656 85.3125 -25.484375 C 86.71875 -25.367188 87.5625 -25.195312 87.84375 -24.96875 C 88.125 -24.75 88.492188 -24.472656 88.953125 -24.140625 C 89.398438 -23.679688 89.707031 -23.3125 89.875 -23.03125 C 90.039062 -22.75 90.148438 -22.070312 90.203125 -21 C 90.265625 -19.9375 90.351562 -17.941406 90.46875 -15.015625 C 90.46875 -11.640625 90.4375 -9.613281 90.375 -8.9375 C 90.320312 -8.269531 90.238281 -7.65625 90.125 -7.09375 C 89.445312 -4.945312 88.097656 -3.707031 86.078125 -3.375 Z M 86.078125 -3.375 "/></g></g><g style="fill:#e12885;fill-opacity:1;"><g transform="translate(207.593429, 257.060902)"><path style="stroke:none" d="M 86.078125 -3.375 C 85.285156 -3.257812 83.203125 -3.203125 79.828125 -3.203125 C 76.453125 -3.203125 72.375 -3.203125 67.59375 -3.203125 C 62.8125 -3.203125 57.773438 -3.203125 52.484375 -3.203125 C 47.203125 -3.203125 42.171875 -3.203125 37.390625 -3.203125 C 32.609375 -3.203125 28.613281 -3.203125 25.40625 -3.203125 C 22.195312 -3.203125 20.3125 -3.257812 19.75 -3.375 C 18.0625 -3.601562 16.9375 -3.96875 16.375 -4.46875 C 15.8125 -4.976562 15.359375 -5.679688 15.015625 -6.578125 C 14.910156 -7.023438 14.828125 -8.117188 14.765625 -9.859375 C 14.710938 -11.609375 14.6875 -14.59375 14.6875 -18.8125 C 14.6875 -23.03125 14.65625 -28.878906 14.59375 -36.359375 C 14.539062 -43.847656 14.515625 -53.5 14.515625 -65.3125 C 14.398438 -84.894531 14.34375 -99.492188 14.34375 -109.109375 C 14.34375 -118.734375 14.398438 -123.992188 14.515625 -124.890625 C 14.847656 -126.921875 15.914062 -128.382812 17.71875 -129.28125 L 18.734375 -129.796875 L 50.296875 -129.96875 C 56.367188 -129.96875 61.910156 -129.96875 66.921875 -129.96875 C 71.929688 -129.96875 76.007812 -129.96875 79.15625 -129.96875 C 82.3125 -129.96875 84.113281 -129.910156 84.5625 -129.796875 C 85.6875 -129.679688 86.441406 -129.59375 86.828125 -129.53125 C 87.222656 -129.476562 87.59375 -129.34375 87.9375 -129.125 C 89.0625 -128.5625 89.847656 -127.546875 90.296875 -126.078125 C 90.523438 -125.515625 90.664062 -124.867188 90.71875 -124.140625 C 90.769531 -123.410156 90.742188 -121.300781 90.640625 -117.8125 L 90.640625 -111.0625 L 90.125 -110.046875 C 89.675781 -109.035156 89.140625 -108.332031 88.515625 -107.9375 C 87.898438 -107.539062 86.804688 -107.226562 85.234375 -107 C 84.785156 -106.894531 82.394531 -106.8125 78.0625 -106.75 C 73.726562 -106.695312 68.1875 -106.671875 61.4375 -106.671875 C 54.238281 -106.671875 49.035156 -106.671875 45.828125 -106.671875 C 42.617188 -106.671875 40.476562 -106.414062 39.40625 -105.90625 C 38.34375 -105.40625 37.472656 -104.476562 36.796875 -103.125 C 36.453125 -102.332031 36.195312 -101.539062 36.03125 -100.75 C 35.863281 -99.96875 35.78125 -98.507812 35.78125 -96.375 C 35.78125 -94.238281 35.78125 -90.921875 35.78125 -86.421875 C 35.78125 -81.921875 35.78125 -75.617188 35.78125 -67.515625 C 35.78125 -61.429688 35.78125 -55.882812 35.78125 -50.875 C 35.78125 -45.875 35.78125 -41.769531 35.78125 -38.5625 C 35.78125 -35.351562 35.78125 -33.46875 35.78125 -32.90625 C 35.894531 -31.675781 36.234375 -30.5 36.796875 -29.375 C 37.359375 -28.25 38.144531 -27.347656 39.15625 -26.671875 C 39.832031 -26.222656 40.648438 -25.941406 41.609375 -25.828125 C 42.566406 -25.710938 44.535156 -25.679688 47.515625 -25.734375 C 50.492188 -25.796875 55.359375 -25.828125 62.109375 -25.828125 C 69.085938 -25.828125 74.347656 -25.796875 77.890625 -25.734375 C 81.429688 -25.679688 83.90625 -25.597656 85.3125 -25.484375 C 86.71875 -25.367188 87.5625 -25.195312 87.84375 -24.96875 C 88.125 -24.75 88.492188 -24.472656 88.953125 -24.140625 C 89.398438 -23.679688 89.707031 -23.3125 89.875 -23.03125 C 90.039062 -22.75 90.148438 -22.070312 90.203125 -21 C 90.265625 -19.9375 90.351562 -17.941406 90.46875 -15.015625 C 90.46875 -11.640625 90.4375 -9.613281 90.375 -8.9375 C 90.320312 -8.269531 90.238281 -7.65625 90.125 -7.09375 C 89.445312 -4.945312 88.097656 -3.707031 86.078125 -3.375 Z M 86.078125 -3.375 "/></g></g><g style="fill:#bec8d1;fill-opacity:1;"><g transform="translate(66.358359, 257.713001)"><path style="stroke:none" d="M 44.183594 0 L 75.863281 0 C 77.675781 0 79.292969 -1.613281 79.292969 -3.429688 L 79.292969 -15.738281 C 79.292969 -17.554688 77.675781 -19.167969 75.863281 -19.167969 L 44.183594 -19.167969 C 42.371094 -19.167969 40.753906 -20.78125 40.753906 -22.597656 L 40.753906 -73.441406 C 40.753906 -75.257812 42.371094 -76.871094 44.183594 -76.871094 L 75.863281 -76.871094 C 77.675781 -76.871094 79.292969 -78.484375 79.292969 -80.300781 L 79.292969 -92.605469 C 79.292969 -94.421875 77.675781 -96.039062 75.863281 -96.039062 L 44.183594 -96.039062 C 42.371094 -96.039062 40.753906 -97.652344 40.753906 -99.46875 L 40.753906 -131.144531 C 40.753906 -132.960938 39.140625 -134.574219 37.324219 -134.574219 L 25.019531 -134.574219 C 23.203125 -134.574219 21.589844 -132.960938 21.589844 -131.144531 L 21.589844 -99.46875 C 21.589844 -97.652344 19.972656 -96.039062 18.160156 -96.039062 L 5.851562 -96.039062 C 4.035156 -96.039062 2.421875 -94.421875 2.421875 -92.605469 L 2.421875 -80.300781 C 2.421875 -78.484375 4.035156 -76.871094 5.851562 -76.871094 L 18.160156 -76.871094 C 19.972656 -76.871094 21.589844 -75.257812 21.589844 -73.441406 L 21.589844 -22.597656 C 21.589844 -20.78125 23.203125 -19.167969 25.019531 -19.167969 L 37.324219 -19.167969 C 39.140625 -19.167969 40.753906 -17.554688 40.753906 -15.738281 L 40.753906 -3.429688 C 40.753906 -1.613281 42.371094 0 44.183594 0 Z M 44.183594 0 "/></g></g><g style="fill:#bec8d1;fill-opacity:1;"><g transform="translate(148.0706, 257.713001)"><path style="stroke:none" d="M 5.851562 0 L 18.160156 0 C 19.972656 0 21.589844 -1.613281 21.589844 -3.429688 L 21.589844 -92.605469 C 21.589844 -94.421875 19.972656 -96.039062 18.160156 -96.039062 L 5.851562 -96.039062 C 4.035156 -96.039062 2.421875 -94.421875 2.421875 -92.605469 L 2.421875 -3.429688 C 2.421875 -1.613281 4.035156 0 5.851562 0 Z M 5.851562 -115.203125 L 18.160156 -115.203125 C 19.972656 -115.203125 21.589844 -116.820312 21.589844 -118.632812 L 21.589844 -131.144531 C 21.589844 -132.960938 19.972656 -134.574219 18.160156 -134.574219 L 5.851562 -134.574219 C 4.035156 -134.574219 2.421875 -132.960938 2.421875 -131.144531 L 2.421875 -118.632812 C 2.421875 -116.820312 4.035156 -115.203125 5.851562 -115.203125 Z M 5.851562 -115.203125 "/></g></g><g clip-rule="nonzero" clip-path="url(#8d0abc3df9)"><g clip-rule="nonzero" clip-path="url(#170bbd58d7)"><g clip-rule="nonzero" clip-path="url(#44b5d32c8d)"><path style=" stroke:none;fill-rule:nonzero;fill:#e12885;fill-opacity:1;" d="M 212.804688 133.347656 C 212.804688 133.347656 213.878906 134.121094 214.847656 138.359375 C 215.816406 142.59375 215.664062 153.484375 226.472656 155.859375 C 234.132812 157.546875 250.703125 146.425781 244.078125 132.726562 C 239.566406 123.402344 223.769531 120.960938 223.769531 120.960938 C 223.769531 120.960938 226.390625 122.550781 226.050781 123.5 C 225.84375 124.078125 223.125 121.777344 220.746094 120.289062 C 219.195312 119.316406 217.59375 118.988281 217.59375 118.988281 C 217.59375 118.988281 218.613281 119.839844 218.835938 120.9375 C 219.058594 122.035156 218.492188 123.382812 218.492188 123.382812 C 218.492188 123.382812 216.511719 122.394531 215.199219 120.441406 C 213.886719 118.488281 213.238281 115.574219 213.238281 115.574219 C 213.238281 115.574219 211.613281 120.835938 212.925781 125.605469 C 214.238281 130.371094 218.492188 134.644531 218.492188 134.644531 C 218.53125 136.164062 212.804688 133.347656 212.804688 133.347656 Z M 212.804688 133.347656 "/></g></g></g><g clip-rule="nonzero" clip-path="url(#54bed052b3)"><g clip-rule="nonzero" clip-path="url(#10121c37f9)"><g clip-rule="nonzero" clip-path="url(#51d267c470)"><path style=" stroke:none;fill-rule:nonzero;fill:#e12885;fill-opacity:1;" d="M 216.730469 136.609375 C 216.730469 136.609375 216.691406 145.511719 223.496094 150.25 C 228.457031 153.703125 242.898438 151.570312 242.4375 137.386719 C 242.171875 129.21875 227.105469 125.574219 227.105469 125.574219 C 227.105469 125.574219 230.921875 128.714844 225.589844 127.546875 C 224.402344 127.289062 220.734375 124.765625 220.734375 124.765625 C 220.734375 124.765625 222.773438 126.714844 223.285156 128.0625 C 225.089844 132.808594 219.851562 128.714844 218.71875 127.660156 C 215.519531 124.683594 214.21875 121.78125 214.21875 121.78125 C 214.21875 121.78125 213.738281 123.910156 219.105469 130.628906 C 221.210938 133.261719 224.484375 136.476562 223.21875 138.675781 C 222.25 140.359375 216.730469 136.609375 216.730469 136.609375 Z M 216.730469 136.609375 "/></g></g></g></g></svg>