<svg xmlns="http://www.w3.org/2000/svg" xmlns:xlink="http://www.w3.org/1999/xlink" width="500" zoomAndPan="magnify" viewBox="0 0 375 374.999991" height="500" preserveAspectRatio="xMidYMid meet" version="1.2"><defs><clipPath id="b5bcc6d7e6"><path d="M 185 111 L 219 111 L 219 153 L 185 153 Z M 185 111 "/></clipPath><clipPath id="b25170cb8e"><path d="M 168.582031 127.769531 L 196.992188 102.15625 L 229.132812 137.804688 L 200.722656 163.417969 Z M 168.582031 127.769531 "/></clipPath><clipPath id="843723d6d9"><path d="M 168.582031 127.769531 L 196.992188 102.15625 L 229.132812 137.804688 L 200.722656 163.417969 Z M 168.582031 127.769531 "/></clipPath><clipPath id="85799b283b"><path d="M 187 118 L 216 118 L 216 149 L 187 149 Z M 187 118 "/></clipPath><clipPath id="2602b1bc63"><path d="M 168.582031 127.769531 L 196.992188 102.15625 L 229.132812 137.804688 L 200.722656 163.417969 Z M 168.582031 127.769531 "/></clipPath><clipPath id="0cbf4ea89e"><path d="M 168.582031 127.769531 L 196.992188 102.15625 L 229.132812 137.804688 L 200.722656 163.417969 Z M 168.582031 127.769531 "/></clipPath></defs><g id="dea9fe6d7e"><g style="fill:#0a4f62;fill-opacity:0.4;"><g transform="translate(182.215178, 267.033149)"><path style="stroke:none" d="M 89.390625 -3.5 C 88.578125 -3.382812 86.414062 -3.328125 82.90625 -3.328125 C 79.40625 -3.328125 75.171875 -3.328125 70.203125 -3.328125 C 65.234375 -3.328125 60.003906 -3.328125 54.515625 -3.328125 C 49.023438 -3.328125 43.796875 -3.328125 38.828125 -3.328125 C 33.859375 -3.328125 29.707031 -3.328125 26.375 -3.328125 C 23.050781 -3.328125 21.097656 -3.382812 20.515625 -3.5 C 18.753906 -3.738281 17.582031 -4.117188 17 -4.640625 C 16.414062 -5.171875 15.945312 -5.90625 15.59375 -6.84375 C 15.476562 -7.300781 15.390625 -8.4375 15.328125 -10.25 C 15.273438 -12.0625 15.25 -15.15625 15.25 -19.53125 C 15.25 -23.914062 15.21875 -29.992188 15.15625 -37.765625 C 15.101562 -45.535156 15.078125 -55.554688 15.078125 -67.828125 C 14.960938 -88.160156 14.90625 -103.320312 14.90625 -113.3125 C 14.90625 -123.3125 14.960938 -128.773438 15.078125 -129.703125 C 15.421875 -131.804688 16.53125 -133.328125 18.40625 -134.265625 L 19.453125 -134.796875 L 52.234375 -134.96875 C 58.546875 -134.96875 64.300781 -134.96875 69.5 -134.96875 C 74.695312 -134.96875 78.929688 -134.96875 82.203125 -134.96875 C 85.472656 -134.96875 87.34375 -134.910156 87.8125 -134.796875 C 88.976562 -134.671875 89.765625 -134.578125 90.171875 -134.515625 C 90.585938 -134.460938 90.972656 -134.320312 91.328125 -134.09375 C 92.492188 -133.507812 93.3125 -132.457031 93.78125 -130.9375 C 94.007812 -130.351562 94.148438 -129.679688 94.203125 -128.921875 C 94.265625 -128.160156 94.238281 -125.96875 94.125 -122.34375 L 94.125 -115.328125 L 93.59375 -114.28125 C 93.132812 -113.226562 92.582031 -112.5 91.9375 -112.09375 C 91.289062 -111.6875 90.148438 -111.363281 88.515625 -111.125 C 88.046875 -111.007812 85.5625 -110.921875 81.0625 -110.859375 C 76.5625 -110.804688 70.804688 -110.78125 63.796875 -110.78125 C 56.316406 -110.78125 50.910156 -110.78125 47.578125 -110.78125 C 44.253906 -110.78125 42.035156 -110.515625 40.921875 -109.984375 C 39.816406 -109.460938 38.914062 -108.5 38.21875 -107.09375 C 37.863281 -106.28125 37.597656 -105.460938 37.421875 -104.640625 C 37.242188 -103.828125 37.15625 -102.304688 37.15625 -100.078125 C 37.15625 -97.859375 37.15625 -94.410156 37.15625 -89.734375 C 37.15625 -85.066406 37.15625 -78.523438 37.15625 -70.109375 C 37.15625 -63.796875 37.15625 -58.039062 37.15625 -52.84375 C 37.15625 -47.644531 37.15625 -43.378906 37.15625 -40.046875 C 37.15625 -36.722656 37.15625 -34.769531 37.15625 -34.1875 C 37.269531 -32.894531 37.617188 -31.664062 38.203125 -30.5 C 38.796875 -29.332031 39.617188 -28.394531 40.671875 -27.6875 C 41.367188 -27.226562 42.210938 -26.9375 43.203125 -26.8125 C 44.203125 -26.695312 46.25 -26.664062 49.34375 -26.71875 C 52.4375 -26.78125 57.488281 -26.8125 64.5 -26.8125 C 71.75 -26.8125 77.210938 -26.78125 80.890625 -26.71875 C 84.566406 -26.664062 87.132812 -26.582031 88.59375 -26.46875 C 90.0625 -26.351562 90.941406 -26.175781 91.234375 -25.9375 C 91.523438 -25.707031 91.90625 -25.414062 92.375 -25.0625 C 92.84375 -24.59375 93.160156 -24.210938 93.328125 -23.921875 C 93.503906 -23.628906 93.625 -22.925781 93.6875 -21.8125 C 93.75 -20.707031 93.835938 -18.632812 93.953125 -15.59375 C 93.953125 -12.09375 93.921875 -9.988281 93.859375 -9.28125 C 93.804688 -8.582031 93.71875 -7.941406 93.59375 -7.359375 C 92.894531 -5.140625 91.492188 -3.851562 89.390625 -3.5 Z M 89.390625 -3.5 "/></g></g><g style="fill:#e12885;fill-opacity:1;"><g transform="translate(174.468482, 259.286463)"><path style="stroke:none" d="M 89.390625 -3.5 C 88.578125 -3.382812 86.414062 -3.328125 82.90625 -3.328125 C 79.40625 -3.328125 75.171875 -3.328125 70.203125 -3.328125 C 65.234375 -3.328125 60.003906 -3.328125 54.515625 -3.328125 C 49.023438 -3.328125 43.796875 -3.328125 38.828125 -3.328125 C 33.859375 -3.328125 29.707031 -3.328125 26.375 -3.328125 C 23.050781 -3.328125 21.097656 -3.382812 20.515625 -3.5 C 18.753906 -3.738281 17.582031 -4.117188 17 -4.640625 C 16.414062 -5.171875 15.945312 -5.90625 15.59375 -6.84375 C 15.476562 -7.300781 15.390625 -8.4375 15.328125 -10.25 C 15.273438 -12.0625 15.25 -15.15625 15.25 -19.53125 C 15.25 -23.914062 15.21875 -29.992188 15.15625 -37.765625 C 15.101562 -45.535156 15.078125 -55.554688 15.078125 -67.828125 C 14.960938 -88.160156 14.90625 -103.320312 14.90625 -113.3125 C 14.90625 -123.3125 14.960938 -128.773438 15.078125 -129.703125 C 15.421875 -131.804688 16.53125 -133.328125 18.40625 -134.265625 L 19.453125 -134.796875 L 52.234375 -134.96875 C 58.546875 -134.96875 64.300781 -134.96875 69.5 -134.96875 C 74.695312 -134.96875 78.929688 -134.96875 82.203125 -134.96875 C 85.472656 -134.96875 87.34375 -134.910156 87.8125 -134.796875 C 88.976562 -134.671875 89.765625 -134.578125 90.171875 -134.515625 C 90.585938 -134.460938 90.972656 -134.320312 91.328125 -134.09375 C 92.492188 -133.507812 93.3125 -132.457031 93.78125 -130.9375 C 94.007812 -130.351562 94.148438 -129.679688 94.203125 -128.921875 C 94.265625 -128.160156 94.238281 -125.96875 94.125 -122.34375 L 94.125 -115.328125 L 93.59375 -114.28125 C 93.132812 -113.226562 92.582031 -112.5 91.9375 -112.09375 C 91.289062 -111.6875 90.148438 -111.363281 88.515625 -111.125 C 88.046875 -111.007812 85.5625 -110.921875 81.0625 -110.859375 C 76.5625 -110.804688 70.804688 -110.78125 63.796875 -110.78125 C 56.316406 -110.78125 50.910156 -110.78125 47.578125 -110.78125 C 44.253906 -110.78125 42.035156 -110.515625 40.921875 -109.984375 C 39.816406 -109.460938 38.914062 -108.5 38.21875 -107.09375 C 37.863281 -106.28125 37.597656 -105.460938 37.421875 -104.640625 C 37.242188 -103.828125 37.15625 -102.304688 37.15625 -100.078125 C 37.15625 -97.859375 37.15625 -94.410156 37.15625 -89.734375 C 37.15625 -85.066406 37.15625 -78.523438 37.15625 -70.109375 C 37.15625 -63.796875 37.15625 -58.039062 37.15625 -52.84375 C 37.15625 -47.644531 37.15625 -43.378906 37.15625 -40.046875 C 37.15625 -36.722656 37.15625 -34.769531 37.15625 -34.1875 C 37.269531 -32.894531 37.617188 -31.664062 38.203125 -30.5 C 38.796875 -29.332031 39.617188 -28.394531 40.671875 -27.6875 C 41.367188 -27.226562 42.210938 -26.9375 43.203125 -26.8125 C 44.203125 -26.695312 46.25 -26.664062 49.34375 -26.71875 C 52.4375 -26.78125 57.488281 -26.8125 64.5 -26.8125 C 71.75 -26.8125 77.210938 -26.78125 80.890625 -26.71875 C 84.566406 -26.664062 87.132812 -26.582031 88.59375 -26.46875 C 90.0625 -26.351562 90.941406 -26.175781 91.234375 -25.9375 C 91.523438 -25.707031 91.90625 -25.414062 92.375 -25.0625 C 92.84375 -24.59375 93.160156 -24.210938 93.328125 -23.921875 C 93.503906 -23.628906 93.625 -22.925781 93.6875 -21.8125 C 93.75 -20.707031 93.835938 -18.632812 93.953125 -15.59375 C 93.953125 -12.09375 93.921875 -9.988281 93.859375 -9.28125 C 93.804688 -8.582031 93.71875 -7.941406 93.59375 -7.359375 C 92.894531 -5.140625 91.492188 -3.851562 89.390625 -3.5 Z M 89.390625 -3.5 "/></g></g><g clip-rule="nonzero" clip-path="url(#b5bcc6d7e6)"><g clip-rule="nonzero" clip-path="url(#b25170cb8e)"><g clip-rule="nonzero" clip-path="url(#843723d6d9)"><path style=" stroke:none;fill-rule:nonzero;fill:#e12885;fill-opacity:1;" d="M 185.664062 129.753906 C 185.664062 129.753906 186.738281 130.527344 187.707031 134.761719 C 188.675781 138.996094 188.527344 149.890625 199.332031 152.265625 C 206.992188 153.949219 223.5625 142.832031 216.9375 129.132812 C 212.425781 119.808594 196.628906 117.367188 196.628906 117.367188 C 196.628906 117.367188 199.25 118.957031 198.910156 119.90625 C 198.703125 120.480469 195.984375 118.183594 193.605469 116.691406 C 192.054688 115.71875 190.453125 115.394531 190.453125 115.394531 C 190.453125 115.394531 191.472656 116.242188 191.695312 117.339844 C 191.921875 118.4375 191.351562 119.785156 191.351562 119.785156 C 191.351562 119.785156 189.371094 118.796875 188.058594 116.84375 C 186.746094 114.894531 186.101562 111.980469 186.101562 111.980469 C 186.101562 111.980469 184.472656 117.242188 185.785156 122.007812 C 187.097656 126.773438 191.351562 131.046875 191.351562 131.046875 C 191.390625 132.570312 185.664062 129.753906 185.664062 129.753906 Z M 185.664062 129.753906 "/></g></g></g><g clip-rule="nonzero" clip-path="url(#85799b283b)"><g clip-rule="nonzero" clip-path="url(#2602b1bc63)"><g clip-rule="nonzero" clip-path="url(#0cbf4ea89e)"><path style=" stroke:none;fill-rule:nonzero;fill:#e12885;fill-opacity:1;" d="M 189.59375 133.011719 C 189.59375 133.011719 189.550781 141.914062 196.355469 146.652344 C 201.316406 150.109375 215.757812 147.972656 215.296875 133.792969 C 215.035156 125.625 199.964844 121.980469 199.964844 121.980469 C 199.964844 121.980469 203.78125 125.121094 198.449219 123.953125 C 197.261719 123.691406 193.597656 121.171875 193.597656 121.171875 C 193.597656 121.171875 195.632812 123.117188 196.144531 124.464844 C 197.949219 129.214844 192.710938 125.117188 191.578125 124.066406 C 188.378906 121.089844 187.078125 118.1875 187.078125 118.1875 C 187.078125 118.1875 186.597656 120.316406 191.964844 127.03125 C 194.070312 129.667969 197.34375 132.878906 196.078125 135.078125 C 195.109375 136.765625 189.59375 133.011719 189.59375 133.011719 Z M 189.59375 133.011719 "/></g></g></g><g style="fill:#bec8d1;fill-opacity:1;"><g transform="translate(79.158163, 257.822201)"><path style="stroke:none" d="M 44.183594 0 L 75.863281 0 C 77.675781 0 79.292969 -1.613281 79.292969 -3.429688 L 79.292969 -15.738281 C 79.292969 -17.554688 77.675781 -19.167969 75.863281 -19.167969 L 44.183594 -19.167969 C 42.371094 -19.167969 40.753906 -20.78125 40.753906 -22.597656 L 40.753906 -73.441406 C 40.753906 -75.257812 42.371094 -76.871094 44.183594 -76.871094 L 75.863281 -76.871094 C 77.675781 -76.871094 79.292969 -78.484375 79.292969 -80.300781 L 79.292969 -92.605469 C 79.292969 -94.421875 77.675781 -96.039062 75.863281 -96.039062 L 44.183594 -96.039062 C 42.371094 -96.039062 40.753906 -97.652344 40.753906 -99.46875 L 40.753906 -131.144531 C 40.753906 -132.960938 39.140625 -134.574219 37.324219 -134.574219 L 25.019531 -134.574219 C 23.203125 -134.574219 21.589844 -132.960938 21.589844 -131.144531 L 21.589844 -99.46875 C 21.589844 -97.652344 19.972656 -96.039062 18.160156 -96.039062 L 5.851562 -96.039062 C 4.035156 -96.039062 2.421875 -94.421875 2.421875 -92.605469 L 2.421875 -80.300781 C 2.421875 -78.484375 4.035156 -76.871094 5.851562 -76.871094 L 18.160156 -76.871094 C 19.972656 -76.871094 21.589844 -75.257812 21.589844 -73.441406 L 21.589844 -22.597656 C 21.589844 -20.78125 23.203125 -19.167969 25.019531 -19.167969 L 37.324219 -19.167969 C 39.140625 -19.167969 40.753906 -17.554688 40.753906 -15.738281 L 40.753906 -3.429688 C 40.753906 -1.613281 42.371094 0 44.183594 0 Z M 44.183594 0 "/></g></g><g style="fill:#bec8d1;fill-opacity:1;"><g transform="translate(160.870404, 257.822201)"><path style="stroke:none" d="M 5.851562 0 L 18.160156 0 C 19.972656 0 21.589844 -1.613281 21.589844 -3.429688 L 21.589844 -92.605469 C 21.589844 -94.421875 19.972656 -96.039062 18.160156 -96.039062 L 5.851562 -96.039062 C 4.035156 -96.039062 2.421875 -94.421875 2.421875 -92.605469 L 2.421875 -3.429688 C 2.421875 -1.613281 4.035156 0 5.851562 0 Z M 5.851562 -115.203125 L 18.160156 -115.203125 C 19.972656 -115.203125 21.589844 -116.820312 21.589844 -118.632812 L 21.589844 -131.144531 C 21.589844 -132.960938 19.972656 -134.574219 18.160156 -134.574219 L 5.851562 -134.574219 C 4.035156 -134.574219 2.421875 -132.960938 2.421875 -131.144531 L 2.421875 -118.632812 C 2.421875 -116.820312 4.035156 -115.203125 5.851562 -115.203125 Z M 5.851562 -115.203125 "/></g></g></g></svg>